<svg clip-rule="evenodd" fill-rule="evenodd" height="512" image-rendering="optimizeQuality" shape-rendering="geometricPrecision" text-rendering="geometricPrecision" viewBox="0 0 2666.66 2666.66" width="512" xmlns="http://www.w3.org/2000/svg" xmlns:xodm="http://www.corel.com/coreldraw/odm/2003"><g id="Layer_x0020_1"><circle cx="1333.33" cy="1333.33" fill="#05aac0" r="1333.33"/><g fill="#fff"><path d="m1637.61 1883.07h-97.78v-227.49c0-26.3-39.97-26.31-39.97 0v227.49h-333.05v-227.49c0-26.3-39.97-26.31-39.97 0v227.49h-97.78c-11.03 0-19.98-8.96-19.98-19.99v-192.5c0-79.52 64.68-144.2 144.18-144.2h360.17c79.52 0 144.2 64.68 144.2 144.2v192.5c-.02 11.04-8.97 19.99-20 19.99z"/><path d="m1398.14 1583.04c-20.22 0-36.65-16.43-36.65-36.65v-83.73c0-48.27 73.3-48.26 73.3 0v83.73c0 20.23-16.42 36.65-36.65 36.65zm-129.62 0c-20.22 0-36.65-16.43-36.65-36.65v-79.61c0-48.27 73.3-48.26 73.3 0v79.61c0 20.23-16.42 36.65-36.65 36.65z"/><path d="m1328.56 1514.81c-147.68 0-243.55-152.42-193.45-293.68 16.13-45.49 85.25-21 69.1 24.52-48.81 137.54 97.57 250.72 203.04 168.88 51.23-39.75 66.95-108.83 45.67-168.88-17.67-49.85 82.75-99.67 82.75 53.98 0 115.37-89.81 215.19-207.11 215.19z"/><path d="m1159.98 1295.68c-39.04 0-46.97-135.77-12.17-198.41 19.83-35.7 62.05-76.07 153.07-75.81 15.07.09 36.56 11.86 48.57 26.95 149.19-6.63 238.89 52.49 166.27 232.35-9.82 24.33-46.87 9.3-37.06-14.99 1.43-3.55 2.77-7.01 4.06-10.42-11.45 3.18-27.36 5.2-49.02 5.2-80.43 0-141.37-44-172.17-72.2-26.02 52.36-63.95 68.76-88.31 66.13 1.39 5.26 2.69 9.03 3.61 10.86 8.7 15.31-3 30.35-16.87 30.35z"/><path d="m1011.31 1564.07v-146.33c0-26.3-39.97-26.31-39.97 0v227.49h-333.05v-227.49c0-26.3-39.97-26.31-39.97 0v227.49h-97.78c-11.03 0-19.98-8.96-19.98-19.99v-192.5c0-79.52 64.68-144.2 144.18-144.2h360.17c79.52 0 144.2 64.68 144.2 144.2v61.97c-48 6.56-89.95 32.36-117.78 69.36z"/><path d="m869.63 1345.2c-20.22 0-36.65-16.43-36.65-36.65v-83.73c0-48.27 73.3-48.26 73.3 0v83.73c0 20.23-16.42 36.65-36.65 36.65zm-129.62 0c-20.22 0-36.65-16.43-36.65-36.65v-79.61c0-48.27 73.3-48.26 73.3 0v79.61c0 20.23-16.42 36.65-36.65 36.65z"/><path d="m800.05 1276.96c-147.68 0-243.55-152.42-193.45-293.68 16.13-45.49 85.25-21 69.1 24.52-48.81 137.54 97.57 250.72 203.04 168.88 51.23-39.75 66.95-108.83 45.67-168.88-17.67-49.85 82.75-99.67 82.75 53.98 0 115.37-89.81 215.19-207.11 215.19z"/><path d="m631.47 1057.83c-39.04 0-46.97-135.77-12.17-198.41 19.83-35.7 62.05-76.07 153.07-75.81 15.07.09 36.56 11.86 48.57 26.95 149.19-6.63 238.89 52.49 166.27 232.35-9.82 24.33-46.87 9.3-37.06-14.99 1.43-3.55 2.77-7.01 4.06-10.42-11.45 3.18-27.36 5.2-49.02 5.2-80.43 0-141.37-44-172.17-72.2-26.02 52.36-63.95 68.76-88.31 66.13 1.39 5.26 2.69 9.03 3.61 10.86 8.7 15.31-3 30.35-16.87 30.35z"/><path d="m2166.1 1645.22h-97.78v-227.49c0-26.3-39.97-26.31-39.97 0v227.49h-333.05v-227.49c0-26.3-39.97-26.31-39.97 0v146.29c-27.84-36.98-69.78-62.76-117.77-69.31v-61.97c0-79.52 64.68-144.2 144.18-144.2h360.17c79.52 0 144.2 64.68 144.2 144.2v192.5c-.02 11.04-8.97 19.99-20 19.99z"/><path d="m1926.63 1345.19c-20.22 0-36.65-16.43-36.65-36.65v-83.73c0-48.27 73.3-48.26 73.3 0v83.73c0 20.23-16.42 36.65-36.65 36.65zm-129.62 0c-20.22 0-36.65-16.43-36.65-36.65v-79.61c0-48.27 73.3-48.26 73.3 0v79.61c0 20.23-16.42 36.65-36.65 36.65z"/><path d="m1857.05 1276.96c-147.68 0-243.55-152.42-193.45-293.68 16.13-45.49 85.25-21 69.1 24.52-48.81 137.54 97.57 250.72 203.04 168.88 51.23-39.75 66.95-108.83 45.67-168.88-17.67-49.85 82.75-99.67 82.75 53.98 0 115.37-89.81 215.19-207.11 215.19z"/><path d="m1688.47 1057.83c-39.04 0-46.97-135.77-12.17-198.41 19.83-35.7 62.05-76.07 153.07-75.81 15.07.09 36.56 11.86 48.57 26.95 149.19-6.63 238.89 52.49 166.27 232.35-9.82 24.33-46.87 9.3-37.06-14.99 1.43-3.55 2.77-7.01 4.06-10.42-11.45 3.18-27.36 5.2-49.02 5.2-80.43 0-141.37-44-172.17-72.2-26.02 52.36-63.95 68.76-88.31 66.13 1.39 5.26 2.69 9.03 3.61 10.86 8.7 15.31-3 30.35-16.87 30.35z"/></g></g></svg>