<svg clip-rule="evenodd" fill-rule="evenodd" height="512" image-rendering="optimizeQuality" shape-rendering="geometricPrecision" text-rendering="geometricPrecision" viewBox="0 0 2666.66 2666.66" width="512" xmlns="http://www.w3.org/2000/svg" xmlns:xodm="http://www.corel.com/coreldraw/odm/2003"><g id="Layer_x0020_1"><circle cx="1333.33" cy="1333.33" fill="#05aac0" r="1333.33"/><g fill="#fefefe"><path d="m1565.59 1766.71h-141.38c10.94 0 19.83-8.88 19.83-19.83v-449.26h45.99c26.08 0 26.08-39.63 0-39.63h-313.41c-26.08 0-26.08 39.63 0 39.63h46.01v449.27c0 10.93 8.87 19.81 19.81 19.81h-141.38c-10.28 0-18.83-7.84-19.74-18.08-26.56-300.19-204.49-222.43-204.49-526.17 0-251.71 204.78-456.5 456.48-456.5s456.5 204.78 456.5 456.5c0 303.74-178.19 226.31-204.49 526.17-.89 10.24-9.46 18.08-19.73 18.08zm-585.37-524.45c-10.93 0-19.81-8.87-19.81-19.81 0-205.63 167.29-372.91 372.92-372.91 26.08 0 26.07 39.62 0 39.62-183.78 0-333.29 149.5-333.29 333.29 0 10.95-8.87 19.81-19.81 19.81zm282.02 484.81h142.17v-429.44h-142.17z"/><path d="m1590.33 1887.91h-514c-20.15 0-36.53-16.39-36.53-36.53v-87.76c0-20.14 16.39-36.53 36.53-36.53h513.99c20.15 0 36.53 16.39 36.53 36.53v87.77c.01 20.12-16.37 36.52-36.52 36.52z"/><path d="m1563.17 2009.07h-459.68c-20.14 0-36.53-16.39-36.53-36.53v-104.46c0-10.94 8.87-19.81 19.81-19.81h493.11c10.94 0 19.81 8.89 19.81 19.81v104.46c0 20.14-16.39 36.53-36.53 36.53z"/><path d="m1333.33 2186.66c-99.64 0-180.7-81.08-180.7-180.71 0-12.31-2.88-36.51 19.81-36.51h321.78c22.7 0 19.81 24.21 19.81 36.51.02 99.65-81.06 180.71-180.7 180.71z"/><path d="m1650.61 764.58c-27.81 0-45.35-30.4-31.44-54.48l63.69-110.3c6.59-11.41 17.93-18.43 31.21-18.2 27.52.45 46.18 29.43 31.69 54.53l-63.69 110.3c-6.5 11.26-18.5 18.16-31.46 18.16zm232.28 232.28c-36.94 0-50.19-49.28-18.17-67.77l110.31-63.69c41.3-23.84 77.88 38.92 36.3 62.9-22.24 12.82-109.61 68.56-128.44 68.56zm212.39 317.28h-127.37c-47.83 0-47.82-72.64 0-72.64h127.37c47.83 0 47.83 72.64 0 72.64zm-102.1 380.99c-18.83 0-106.21-55.74-128.44-68.56-41.34-23.84-5.23-86.88 36.31-62.9l110.31 63.69c32.04 18.5 18.78 67.77-18.17 67.77zm-659.85-1015.57c-20.05 0-36.32-16.27-36.32-36.32v-127.35c0-47.83 72.63-47.83 72.63 0v127.37c0 20.05-16.27 36.3-36.31 36.3zm-659.84 1015.57c-36.95 0-50.22-49.29-18.19-67.79l110.3-63.69c41.33-23.86 77.85 38.93 36.32 62.9-22.16 12.8-109.7 68.57-128.43 68.57zm25.26-380.99h-127.36c-47.83 0-47.83-72.64 0-72.64h127.36c47.82 0 47.84 72.64 0 72.64zm85-317.28c-18.81 0-106.23-55.74-128.44-68.56-41.29-23.83-5.26-86.91 36.32-62.9l110.3 63.69c32.02 18.49 18.77 67.77-18.18 67.77zm232.31-232.28c-12.99 0-24.97-6.9-31.48-18.18l-63.68-110.3c-23.85-41.31 38.92-77.86 62.9-36.31l63.68 110.3c13.89 24.06-3.63 54.49-31.42 54.49z"/></g></g></svg>