<svg clip-rule="evenodd" fill-rule="evenodd" height="512" image-rendering="optimizeQuality" shape-rendering="geometricPrecision" text-rendering="geometricPrecision" viewBox="0 0 2666.66 2666.66" width="512" xmlns="http://www.w3.org/2000/svg" xmlns:xodm="http://www.corel.com/coreldraw/odm/2003"><g id="Layer_x0020_1"><circle cx="1333.33" cy="1333.33" fill="#05aac0" r="1333.33"/><g fill="#fefefe"><path d="m1333.33 2185.86c-470.09 0-852.53-382.46-852.53-852.53 0-470.08 382.44-852.52 852.53-852.52 470.08 0 852.52 382.44 852.52 852.52 0 470.09-382.44 852.53-852.52 852.53zm0-179.51c-11.03 0-19.98-8.96-19.98-19.98v-293.26c-216.51-4.14-485.85-111.23-419.99-444.15 1.57-7.94 7.78-14.16 15.72-15.72 137.28-27.18 247.28-.13 324.37 79.47 36.68 37.87 62.17 83.59 79.89 129.59v-156.95c-100.49-69.86-155.44-154.05-163.35-250.39-15.83-192.75 162.08-362.11 169.67-369.22 7.69-7.23 19.65-7.23 27.35 0 7.59 7.11 185.49 176.47 169.67 369.2-7.92 96.34-62.87 180.54-163.37 250.41v156.96c17.72-46 43.22-91.73 79.9-129.6 77.11-79.59 187.03-106.68 324.39-79.47 7.93 1.57 14.14 7.78 15.71 15.72 65.87 332.96-203.46 440.02-420 444.15v293.25c0 11.02-8.95 19.98-19.98 19.98z"/><path d="m1311.65 1623.27c-13.83-193.5-107.15-400.84-381.56-353.28-47.56 274.75 160.69 368.33 353.42 381.66l-222.15-222.16c-18.62-18.62 9.67-46.86 28.25-28.27z"/><path d="m1383.15 1651.65c192.67-13.31 401.04-106.94 353.42-381.67-27.19-4.71-53.24-7.09-77.63-7.09-225 0-292.58 205.07-303.93 360.37l222.06-222.07c18.63-18.63 46.87 9.69 28.27 28.27z"/><path d="m1353.31 1235.71c213.83-167.24 113.33-385.06-19.98-526.9-133.3 141.87-233.83 359.65-19.98 526.9v-162.43c0-26.3 39.96-26.3 39.96 0z"/></g></g></svg>