<svg clip-rule="evenodd" fill-rule="evenodd" height="512" image-rendering="optimizeQuality" shape-rendering="geometricPrecision" text-rendering="geometricPrecision" viewBox="0 0 2666.66 2666.66" width="512" xmlns="http://www.w3.org/2000/svg" xmlns:xodm="http://www.corel.com/coreldraw/odm/2003"><g id="Layer_x0020_1"><circle cx="1333.33" cy="1333.33" fill="#05aac0" r="1333.33"/><g fill="#fff"><path d="m1917.44 913.23c-98.66 0-98.66-141.93 0-141.93 98.65 0 98.65 141.93 0 141.93z"/><path d="m2058.96 1068.28h-283.06c-28.25 0-20.09-40.24-20.09-78.04 0-36.6 33.69-66.38 75.11-66.38 24.43 0 47.34-4.49 53.58 12.91 10.63 29.63 55.26 29.63 65.88 0 6.23-17.39 29.16-12.91 53.57-12.91 41.42 0 75.11 29.78 75.11 66.38 0 37.78 8.16 78.04-20.1 78.04z"/><path d="m2082.79 1139.61h-330.71c-41.28 0-74.86-31.79-74.86-70.87v-297.89c0-39.07 33.58-70.88 74.86-70.88l330.71.01c41.28 0 74.87 31.79 74.87 70.87v297.89c0 39.08-33.59 70.87-74.87 70.87zm-260.08-247.16c-35.46-64.44 4.34-152.85 94.73-152.85 91.54 0 129.7 89.85 94.84 152.85 54.17 3.81 100.26 44.41 100.26 97.78 0 30.41 12.95 109.74-53.57 109.74h-283.06c-66.6 0-53.57-79.86-53.57-109.74 0-53.41 46.15-94.04 100.37-97.79z"/><path d="m1950.21 1751.09c-98.68 0-98.68-141.93 0-141.93 98.66 0 98.66 141.93 0 141.93z"/><path d="m2091.73 1906.14h-283.06c-28.25 0-20.09-40.26-20.09-78.04 0-36.6 33.69-66.4 75.11-66.4 24.42 0 47.35-4.48 53.58 12.91 10.63 29.64 55.26 29.62 65.88 0 6.23-17.39 29.16-12.91 53.57-12.91 41.42 0 75.11 29.8 75.11 66.4 0 37.79 8.17 78.04-20.1 78.04z"/><path d="m2115.56 1977.48h-330.71c-41.28 0-74.86-31.8-74.86-70.88v-297.89c0-39.08 33.58-70.88 74.86-70.88h330.71c41.28 0 74.87 31.8 74.87 70.89v297.88c0 39.09-33.59 70.89-74.87 70.89zm-260.09-247.19c-35.44-64.41 4.33-152.83 94.75-152.83 91.54 0 129.71 89.84 94.85 152.84 54.17 3.81 100.25 44.44 100.25 97.8 0 30.39 12.96 109.73-53.58 109.73h-283.06c-66.59 0-53.56-79.86-53.56-109.74 0-53.4 46.14-94.04 100.35-97.81z"/><path d="m1289.87 1177.39c-37.48 0-50.93-47.3-18.45-65.06l407.46-222.72c41.89-22.89 78.96 37.36 36.83 60.39l-407.46 222.72c-5.6 3.06-11.93 4.67-18.39 4.67zm440.19 615.14c-6.47 0-12.8-1.61-18.4-4.68l-407.46-222.72c-41.87-22.89-5.33-83.43 36.83-60.39l407.45 222.72c32.47 17.75 19.06 65.06-18.42 65.06z"/><path d="m931.67 1415.34c-96.12 0-174.31-74.03-174.31-165.03s78.2-165.02 174.31-165.02c96.12 0 174.31 74.02 174.31 165.02s-78.19 165.03-174.31 165.03zm-24.82-186.56c-15.23 0-10.12-20.46-9.33-37.54-65.05 22.6-44.96 20.06-95.38 21.48-26.54 81.83 38.19 165.83 129.53 165.83 106.97 0 171.09-112.16 114.51-196.69l-64.62 3.19c-6.79 2.07-66.07 43.72-74.71 43.72z"/><path d="m1245.41 1643.19c-36.35 27.19-166.05 115.73-318.96 119.73-153.89 4.02-274.84-98.52-307.59-129.3l-17.74-11.8v-60.12c0-70.45 60.54-127.78 134.96-127.78h118.14c3.36 0 6.5 1.51 8.51 4.05l69.22 88.17 68.66-88.13c2-2.56 5.17-4.08 8.53-4.08h118.12c74.42 0 134.98 57.32 134.98 127.78v69.92l-16.82 11.57z"/><path d="m1009.13 1462.36c-10.72 0-19.42-8.24-19.42-18.39v-66.64c0-24.22 38.84-24.21 38.84 0v66.64c0 10.15-8.7 18.39-19.42 18.39zm-154.93-.03c-10.72 0-19.42-8.21-19.42-18.37v-66.64c0-24.22 38.84-24.21 38.84 0v66.6c0 10.15-8.7 18.41-19.42 18.41z"/><path d="m583.45 1610.09c-62.32-73.36-99.69-166.5-99.69-267.75 0-235.96 202.77-427.93 452-427.93 249.24 0 452 191.97 452 427.93 0 105.62-40.65 202.41-107.89 277.13v-57.77c0-79.68-68.47-144.5-152.63-144.49h-81.05v-21.13c172.37-121.71 53.94-327.51-114.54-327.51-180.22 0-288.36 204.78-114.54 327.51v21.12h-81.06c-84.17 0-152.62 64.81-152.62 144.49v48.38z"/></g></g></svg>