<svg clip-rule="evenodd" fill-rule="evenodd" height="512" image-rendering="optimizeQuality" shape-rendering="geometricPrecision" text-rendering="geometricPrecision" viewBox="0 0 2666.66 2666.66" width="512" xmlns="http://www.w3.org/2000/svg" xmlns:xodm="http://www.corel.com/coreldraw/odm/2003"><g id="Layer_x0020_1"><circle cx="1333.33" cy="1333.33" fill="#05aac0" r="1333.33"/><g fill="#fff"><path d="m1193.35 1684.28c-1.57-69.41-6.07-136.19-17.3-148.81-16.1-18.12-35.26-9.49-42.48-6.26-12.72 5.67-24.07-.15-53.72-47.17-49.07-77.82-24.17-31.45-58.09-105.76-9.02-19.76-41.26-10.63-51.64-7.2-8.71 2.87-14.72 4.86-38.67-13.35-.29-6.56-.33-7.59 2.1-13.52 48.93-119.41-45.41-173.08-107.83-208.58-54.17-30.82-77.43-59.89-116-101.69 12.24-61.22 32.68-119.52 60.07-173.73 49.61 47.42 135.28 97.65 172.91 97.65 47.3 0 56.97-49.86 68.75-66.51 1.82.94 4.97 2.92 9.61 7.03 101.7 90 170.87-38.72 103.39-124.19 2.14 1.02 4.61 2.29 7.47 3.92 62.47 35.59 136.93 18.56 209.7-47.96 18.45-16.88 15.86-67.44 14.7-80.27-5.76-63.65 21.33-111.53 32.7-167.63 53.81.47 106.15 7.21 156.37 19.44-20.81 83.59-141.01 167.18-75.3 225.11 21.78 19.15 76.24 13.42 95.66 16.33-5.58 20.13-12.29 23.76-28.45 26.96-80.73 16.01-43.96 68.43-106.79 81.91-.74.16-73.12 15.14-76.87 39.76-16.29 106.84 122.81 68.83 169.63 66.31 54.7-2.94 43.85-46.92 180.6-47.65 13.54 40.13-11.91 74.35-68.69 75.83-96.92 2.52-26.99 64.27-8.23 117.52-45.89 20.89-99.74-35.82-138.38-7.64-17.89 13.05-25.32 39.52-24.69 88.3-44.35-1.73-52.35 32.74-52.69 81.35-.1 14.68-59.56 129.14 14.4 135 19.78 1.57 27.97 44.89 170.56 44.89 26.26 0 67.18 8.89 87.31-21.73 8.32-12.65 90.41 8.34 112.26 39.93 13.98 20.2 44.98 42.22 78.23 42.22 29.02 0 63.18-28.93 125.97-36.43-64.12 130.94-168.72 238.59-297.38 306.57-21.57-2.85-43.71-.57-64.93 6.81l-188.55 65.59c-11.48-14.58-25.7-26.88-41.85-36.5l-213.83-125.86zm-404-862.12c113.65-195.02 320.59-329.25 559.25-341.06-11.89 57.26-38.62 98.48-32.13 170.37 1.61 17.87 2.79 31.07-4.97 49.99-41.63 37.13-102.09 72.79-159.8 39.92-72.64-41.4-82.26 28.15-60.87 52.9 36.14 41.83 24.75 132.3-43.3 72.13-36.94-32.67-61.27-19.32-80.3 21.3-9.74 20.77-14.92 28.16-24.55 28.16-30.08 0-116.04-55.75-153.33-93.71zm793.77-312.13c384.83 117.55 588.6 542.38 435.34 916.28-62.37 4.03-138.37 38.48-147.13 37.71-16.79-1.17-34.92-13.58-42.74-24.89-29.61-42.81-145.61-89.08-178.54-39.17-5.5 8.33-39.95 3.72-53.92 3.72-139.89 0-116.86-38.43-168.17-44.84-4.49-16.67 23.61-74.35 23.17-95.72-.68-34.24 5.5-40.48 5.4-40.48 4.45-1.72 48.27 9.16 47.35-38.6-1.4-72.69 9.07-60.9 39.43-50.5 29.92 10.23 75.15 25.74 118.57-6.28 25.19-18.58-18.72-81.4-30.3-102.92l30.81-2.26c112.67-21.85 94.4-153.65 50.45-153.68-154.71-.11-155.87 45.76-191.78 47.72-45.48 2.48-127.96 25.62-128.67-10.72 54.32-27.04 62.74-6.39 105.52-51.14 13.21-13.82 6.98-39 47.13-46.98 15.9-3.17 37.64-7.48 52.24-37.67 6.69-13.87 14.42-34.24 4.08-50.89-19.67-31.67-84.96-10.17-106.44-25.44-19.3-19.33 66.15-111.71 88.2-183.28zm-614.56 1204.14c-194.4-147.52-297.17-388.16-266.94-632.24 30.33 32.99 56.52 59.28 104.31 86.48 76.23 43.35 123.71 77.82 90.6 158.66-5.33 13.02-9.86 44.11 2.63 54.18 52.71 42.47 64.73 28.91 91.56 23.48 27.92 62.24 15.33 35.26 58.74 104.11 40.37 64.04 68.57 70.09 97.82 57.97 2.91 11.65 4.74 55.74 5.71 106.44-14.26-1.61-28.77-.78-42.94 3.02l-141.5 37.92z"/><path d="m1255.41 2178.68c-36.07 0-81.75-34.34-127.85-58.94l-125.77-67.11-29.48 9.98-78.74-293.85 225.11-60.31c26.16-6.98 54.65-1.9 74.73 13.29l196.72 117.05c19.86 11.45 35.28 28.16 44.98 47.98l213.42-74.24c59.38-20.67 122.48 13.3 138.74 73.92 15.93 59.43-18.76 124.19-77.3 144.35l-347.58 119.71c-54.39 18.74-83.46 28.17-106.99 28.17z"/><path d="m722.51 2186.41c-8.83 0-16.91-5.9-19.3-14.81l-105.32-393.05c-2.85-10.65 3.46-21.63 14.15-24.49l207.5-55.6c10.59-2.93 21.63 3.47 24.49 14.13l105.32 393.06c2.85 10.65-3.46 21.63-14.15 24.49l-212.69 56.28zm73.16-109.32c-69.96 0-68.93-105.25.02-105.25 69.95 0 68.96 105.25-.02 105.25z"/></g></g></svg>