<svg clip-rule="evenodd" fill-rule="evenodd" height="512" image-rendering="optimizeQuality" shape-rendering="geometricPrecision" text-rendering="geometricPrecision" viewBox="0 0 2666.66 2666.66" width="512" xmlns="http://www.w3.org/2000/svg" xmlns:xodm="http://www.corel.com/coreldraw/odm/2003"><g id="Layer_x0020_1"><circle cx="1333.33" cy="1333.33" fill="#00b389" r="1333.33"/><g fill="#fefefe"><path d="m1231.82 1614.47c-141.31-43.89-242.56-177.15-242.56-328.75 0-189.72 154.34-344.07 344.06-344.07 301.81 0 454.7 361.86 251.78 578.74-12.24.14-24.65 2.26-36.73 6.47-12.9-14.22-29.26-24.4-47.11-30.17 62.72-50.3 101.91-127.59 101.91-210.95 0-148.79-121.06-269.83-269.85-269.83s-269.83 121.06-269.83 269.83c0 111.22 68.38 209.47 168.35 250.05l-.02 78.69z"/><path d="m1333.33 740.59c-71.85 0-130.29-58.44-130.29-130.29s58.44-130.29 130.29-130.29 130.3 58.44 130.3 130.29-58.45 130.29-130.3 130.29z"/><path d="m1810.94 938.41c-115.73 0-174.05-140.48-92.14-222.42 81.86-81.89 222.44-23.65 222.44 92.13 0 72.01-58.31 130.29-130.3 130.29z"/><path d="m2008.77 1416.01c-71.85 0-130.31-58.44-130.31-130.29s58.46-130.3 130.31-130.3 130.29 58.45 130.29 130.3-58.44 130.29-130.29 130.29z"/><path d="m657.9 1416.01c-71.85 0-130.3-58.44-130.3-130.29s58.45-130.3 130.3-130.3 130.29 58.45 130.29 130.3-58.44 130.29-130.29 130.29z"/><path d="m1333.33 998.33c-20.24 0-36.67-16.43-36.67-36.67v-241.08c0-48.29 73.33-48.29 73.33 0v241.08c0 20.24-16.43 36.66-36.67 36.66zm229.15 94.92c-32.54 0-48.96-39.56-25.93-62.59l170.45-170.47c34.02-34.02 85.88 17.83 51.86 51.84l-170.46 170.47c-6.88 6.89-16.19 10.74-25.93 10.74zm335.98 229.14h-241.07c-48.29 0-48.28-73.33 0-73.33h241.07c48.29 0 48.29 73.33 0 73.33zm-889.2 0h-241.07c-48.29 0-48.29-73.33 0-73.33h241.07c48.28 0 48.3 73.33 0 73.33zm94.91-229.14c-9.74 0-19.03-3.85-25.92-10.74l-170.46-170.47c-34.01-34.02 17.83-85.85 51.85-51.84l170.46 170.47c23.03 23.03 6.61 62.59-25.94 62.59z"/><path d="m855.74 938.41c-115.72 0-174.04-140.49-92.13-222.42 81.89-81.91 222.43-23.62 222.43 92.13 0 72-58.31 130.29-130.3 130.29z"/><path d="m1296.33 2070.56c-5.33 0-10.45-2.13-14.2-5.93-56.61-57.08-89.44-142.32-87.83-227.97 1.35-71.18 26.42-134.56 70.85-179.51l.05-271.94c6.19-98.11 156.26-104.98 159.24.8l.03 149.52c37.5-21.96 93.16-11.43 112.43 34.56 47.24-34.03 111.26-13.35 123.91 43.66 49.29-31.07 118.64-4.73 121.61 64.23.33 11.31 6.37 265.8-111.4 386.34-11.74 11.98-24.19 2.72-26.31 2.01l-336.07.02-12.29 4.2z"/><path d="m1647.27 2186.65h-341.3c-18.3 0-33.17-14.89-33.17-33.18v-93.98c0-18.28 14.88-33.18 33.17-33.18h341.29c18.28 0 33.18 14.89 33.18 33.18v93.98c0 18.29-14.89 33.18-33.17 33.18z"/></g></g></svg>