<svg clip-rule="evenodd" fill-rule="evenodd" height="512" image-rendering="optimizeQuality" shape-rendering="geometricPrecision" text-rendering="geometricPrecision" viewBox="0 0 2666.66 2666.66" width="512" xmlns="http://www.w3.org/2000/svg" xmlns:xodm="http://www.corel.com/coreldraw/odm/2003"><g id="Layer_x0020_1"><circle cx="1333.33" cy="1333.33" fill="#05aac0" r="1333.33"/><g fill="#fff"><path d="m1063.52 1737.54c-3.41-21.64-8.06-40.79-13.65-58v-408.91h157.79v74.6h-97.59c-26.08 0-26.08 39.62 0 39.62h117.4c10.95 0 19.81-8.88 19.81-19.81v-114.22c0-10.94-8.88-19.81-19.81-19.81h-177.6v-63.74c0-26.03-39.62-26.08-39.62 0v433.3c-68.6-96.26-171.61-124.04-171.61-368.88 0-52.23 8.17-102.58 23.24-149.88h264.34v86.51c0 26.07 39.62 26.09 39.62 0v-106.33c0-10.92-8.87-19.81-19.81-19.81h-269.64c13.13-31.53 29.44-61.41 48.51-89.26h300.44c26.11 0 26.09-39.62.02-39.62h-270.3c86.84-103 214.88-170.18 358.46-175.87v748.46h-162.2c-26.08 0-26.08 39.62 0 39.62h162.2v199.87h-202.45c-17.22 0-33.43 4.41-47.56 12.15zm615.59-395.02c-10.94 0-19.81-8.87-19.81-19.81v-146.24h-98.95v281.61c0 26.08-39.62 26.09-39.62.02v-684.17c-52.04-21.38-108.48-34.16-167.57-36.5v987.96h202.43c17.22 0 33.42 4.41 47.55 12.15 1.99-12.59 4.41-24.29 7.17-35.31h-165.96c-10.93 0-19.81-8.89-19.81-19.81v-538.45c0-26.08 39.62-26.08 39.62 0v518.62h158.69c60.69-155.41 205.17-140.94 205.17-430.9 0-190.98-108.8-357.01-267.67-439.41v344.57h118.76c10.93 0 19.81 8.87 19.81 19.81v166.05c0 10.95-8.88 19.81-19.81 19.81z"/><path d="m1555.59 1952.78h-444.51c-36.52 0-66.22-29.7-66.22-66.22v-61.91c0-36.52 29.7-66.24 66.22-66.24h444.51c36.51 0 66.21 29.72 66.21 66.23v61.91c.02 36.51-29.69 66.22-66.21 66.22z"/><path d="m1515.63 2075.17h-364.58c-40.69 0-73.83-33.12-73.83-73.83v-21.47c10.57 3.84 21.98 5.94 33.86 5.94h444.51c11.88 0 23.28-2.1 33.85-5.94v21.47c.02 40.71-33.11 73.82-73.81 73.82z"/><path d="m1380.09 2186.67h-93.52c-60.41 0-101.43-39.74-120.27-78.46h333.97c-20.38 46.16-66.57 78.46-120.19 78.46z"/><path d="m1333.34 693.22c-20.06 0-36.34-16.28-36.34-36.33v-141c0-47.85 72.68-47.85 72.68 0v141c0 20.06-16.27 36.33-36.34 36.33zm305.3 81.82c-27.82 0-45.35-30.4-31.44-54.5l70.5-122.11c23.85-41.32 86.93-5.26 62.92 36.33l-70.49 122.11c-6.5 11.26-18.51 18.17-31.48 18.17zm223.53 223.5c-36.96 0-50.22-49.3-18.19-67.8l122.12-70.51c41.33-23.87 77.9 38.95 36.32 62.93-23.44 13.52-121.18 75.38-140.26 75.38zm222.81 305.3h-141c-47.85 0-47.84-72.66 0-72.66h141c47.85 0 47.85 72.66 0 72.66zm-1056.93-528.8c-12.98 0-24.98-6.89-31.5-18.16l-70.51-122.11c-23.88-41.35 38.93-77.87 62.92-36.33l70.51 122.11c13.9 24.08-3.61 54.5-31.43 54.5zm-223.56 223.5c-19.05 0-116.84-61.86-140.26-75.38-41.3-23.83-5.29-86.95 36.33-62.92l122.11 70.51c32.03 18.5 18.79 67.8-18.18 67.8zm-81.8 305.3h-141c-47.85 0-47.85-72.66 0-72.66h141c47.84 0 47.86 72.66 0 72.66z"/></g></g></svg>