<svg clip-rule="evenodd" fill-rule="evenodd" height="512" image-rendering="optimizeQuality" shape-rendering="geometricPrecision" text-rendering="geometricPrecision" viewBox="0 0 2666.66 2666.66" width="512" xmlns="http://www.w3.org/2000/svg" xmlns:xodm="http://www.corel.com/coreldraw/odm/2003"><g id="Layer_x0020_1"><circle cx="1333.33" cy="1333.33" fill="#05aac0" r="1333.33"/><g fill="#fff"><path d="m1996.26 2178.33h-525.46c-10.93 0-19.81-8.88-19.81-19.8v-506.31c0-10.93 8.89-19.81 19.81-19.81h525.46c10.93 0 19.8 8.89 19.8 19.81v506.31c.01 10.93-8.87 19.8-19.8 19.8zm-93.81-84.1h-337.84c-10.93 0-19.81-8.88-19.81-19.8v-74.41c0-43.85 38.35-79.52 85.47-79.52 28 0 53.62-5.31 60 13.46 13.95 41.08 72.56 41.09 86.53 0 6.38-18.78 32-13.45 60-13.45 47.13 0 85.47 35.68 85.47 79.52v74.41c-.02 10.93-8.89 19.8-19.82 19.8zm-318.02-39.62h298.21c0-83.71 3.39-94.5-74.22-94.5-32.24 59.07-117.5 59.04-149.75 0-83.89 0-74.22 18.88-74.22 94.5h-.03zm149.1-155.84c-112.26 0-112.26-170.58 0-170.58s112.26 170.58 0 170.58zm0-130.95c-60.11 0-60.1 91.32 0 91.32s60.1-91.32 0-91.32z"/><path d="m1080.18 2178.33h-525.46c-10.93 0-19.8-8.88-19.8-19.8v-506.31c0-10.93 8.87-19.81 19.8-19.81h525.47c10.93 0 19.8 8.89 19.8 19.81v506.31c-.01 10.93-8.87 19.8-19.82 19.8zm-92.91-84.1h-337.84c-10.93 0-19.81-8.88-19.81-19.8v-74.41c0-43.85 38.35-79.52 85.47-79.52 27.97 0 53.63-5.31 60 13.44 13.95 41.07 72.52 41.18 86.55 0 6.39-18.75 32.03-13.44 60-13.44 47.12 0 85.46 35.68 85.46 79.52v74.41c-.02 10.93-8.89 19.8-19.82 19.8zm-318.04-39.62h298.23c0-83.72 3.38-94.5-74.24-94.5-32.25 59.05-117.5 59.05-149.74 0-83.92 0-74.25 18.88-74.25 94.5zm149.11-155.84c-112.26 0-112.26-170.58 0-170.58s112.26 170.58 0 170.58zm0-130.95c-60.12 0-60.12 91.32 0 91.32 60.13 0 60.11-91.32 0-91.32z"/><path d="m1275.48 932.57c-127.08 0-230.46-103.38-230.46-230.46 0-211.28 272.61-325.96 421.74-128.33 22.16 29.35 39.18 88.87 39.18 128.35 0 127.09-103.38 230.44-230.46 230.44zm-67.32-274.92c-40.77 15.51-40.58 17.44-88.25 17.76-16.47 96.24 57.84 184.55 155.57 184.55 116.28 0 191.9-121.73 142.64-225.35-89.32 4.65-60.83-5.26-115.67 31.93-22.84 15.5-61.08 46.71-85.04 18.6-6.89-8.08-8.94-17.63-9.26-27.48z"/><path d="m1676.54 1328.44h-802.09c-10.93 0-19.81-8.87-19.81-19.8v-194.26c0-96.88 78.81-175.69 175.69-175.69h148.08c6.28 0 12.16 2.95 15.9 7.99l81.51 109.66 80.82-109.59c3.73-5.06 9.65-8.05 15.95-8.05h148.06c96.89 0 175.7 78.81 175.7 175.69v194.24c.02 10.94-8.87 19.8-19.81 19.8z"/><path d="m1372.59 1004.7c-16.4 0-29.71-13.31-29.71-29.7v-104.73c0-39.11 59.41-39.11 59.41 0v104.74c0 16.39-13.31 29.69-29.7 29.69zm-194.2-.03c-16.39 0-29.7-13.28-29.7-29.68v-104.72c0-39.11 59.41-39.11 59.41 0v104.69c0 16.4-13.3 29.72-29.71 29.72z"/><path d="m1239.18 1632.44v-323.81c0-47.82 72.62-47.82 72.62 0v323.81h191.08c47.81 0 47.81 72.62 0 72.62h-454.79c-47.81 0-47.81-72.62 0-72.62h191.08z"/></g></g></svg>