<svg clip-rule="evenodd" fill-rule="evenodd" height="512" image-rendering="optimizeQuality" shape-rendering="geometricPrecision" text-rendering="geometricPrecision" viewBox="0 0 2666.66 2666.66" width="512" xmlns="http://www.w3.org/2000/svg" xmlns:xodm="http://www.corel.com/coreldraw/odm/2003"><g id="Layer_x0020_1"><circle cx="1333.33" cy="1333.33" fill="#f06730" r="1333.33"/><g fill="#fefefe"><path d="m1098.94 2059.52h-538.78c-43.91 0-79.64-35.73-79.64-79.64v-438.74c0-43.91 35.73-79.64 79.64-79.64h538.78c43.93 0 79.64 35.73 79.64 79.64v438.74c0 43.91-35.71 79.64-79.64 79.64zm-100.09-63.16h-338.61c-24.83 0-45.03-20.21-45.03-45.05v-84.52c0-66.25 53.91-120.17 120.17-120.17h188.33c66.27 0 120.17 53.92 120.17 120.17v84.52c0 24.85-20.21 45.05-45.04 45.05zm-263.48-209.75c-44.21 0-80.18 35.97-80.18 80.17v84.52c0 2.73 2.32 5.04 5.04 5.04h338.61c2.74 0 5.04-2.3 5.04-5.04v-84.52c0-44.21-35.97-80.17-80.18-80.17zm94.18-47.37c-59.15 0-107.29-48.13-107.29-107.29s48.13-107.29 107.29-107.29 107.29 48.13 107.29 107.29-48.14 107.29-107.29 107.29zm0-174.55c-88.57 0-88.57 134.56 0 134.56s88.57-134.56 0-134.56z"/><path d="m2106.5 2059.52h-538.79c-43.91 0-79.64-35.73-79.64-79.64v-438.74c0-43.91 35.73-79.64 79.64-79.64h538.79c43.93 0 79.65 35.73 79.65 79.64v438.74c0 43.91-35.73 79.64-79.65 79.64zm-100.08-63.16h-338.6c-24.84 0-45.05-20.21-45.05-45.05v-84.52c0-66.25 53.92-120.17 120.17-120.17h188.34c66.25 0 120.17 53.92 120.17 120.17v84.52c.01 24.85-20.19 45.05-45.04 45.05zm-263.48-209.75c-44.21 0-80.16 35.97-80.16 80.17v84.52c0 2.73 2.3 5.04 5.04 5.04h338.6c2.73 0 5.04-2.3 5.04-5.04v-84.52c0-44.21-35.97-80.17-80.17-80.17zm94.17-47.37c-59.16 0-107.29-48.13-107.29-107.29s48.13-107.29 107.29-107.29 107.3 48.13 107.3 107.29-48.14 107.29-107.3 107.29zm0-174.55c-88.55 0-88.55 134.56 0 134.56 88.57 0 88.56-134.56 0-134.56z"/><path d="m1604.4 1205.16h-538.79c-43.92 0-79.64-35.73-79.64-79.64v-438.74c0-43.93 35.73-79.64 79.64-79.64h538.79c43.91 0 79.64 35.73 79.64 79.64v438.72c0 43.93-35.73 79.65-79.64 79.65zm-100.08-63.91h-338.61c-24.84 0-45.04-20.2-45.04-45.03v-84.52c0-66.27 53.91-120.17 120.17-120.17h188.34c66.25 0 120.17 53.91 120.17 120.17v84.53c.02 24.83-20.19 45.04-45.03 45.04zm-263.48-209.74c-44.21 0-80.18 35.97-80.18 80.18v84.53c0 2.73 2.32 5.04 5.05 5.04h338.59c2.73 0 5.04-2.32 5.04-5.04v-84.52c0-44.21-35.97-80.18-80.17-80.18h-188.34zm94.18-48.83c-58.33 0-105.8-47.45-105.8-105.8s47.45-105.8 105.8-105.8 105.8 47.45 105.8 105.8-47.47 105.8-105.8 105.8zm0-171.61c-86.61 0-86.61 131.62 0 131.62 86.6 0 86.59-131.62 0-131.62z"/><path d="m1334.99 1370h-486.71v111.49c0 48.28-73.32 48.28-73.32.02v-148.17c0-20.24 16.43-36.66 36.66-36.66h486.71v-111.51c0-48.28 73.32-48.28 73.32 0v111.51h486.71c20.24 0 36.66 16.43 36.66 36.66v148.17c0 48.27-73.31 48.25-73.31 0v-111.5h-486.72z"/></g></g></svg>