<svg clip-rule="evenodd" fill-rule="evenodd" height="512" image-rendering="optimizeQuality" shape-rendering="geometricPrecision" text-rendering="geometricPrecision" viewBox="0 0 2666.66 2666.66" width="512" xmlns="http://www.w3.org/2000/svg" xmlns:xodm="http://www.corel.com/coreldraw/odm/2003"><g id="Layer_x0020_1"><circle cx="1333.33" cy="1333.33" fill="#05aac0" r="1333.33"/><g fill="#fefefe"><path d="m1003.19 1677.16c-15.8 0-23.94-20.53-39.48-43.77-48.88-73.16-89.33-137.15-89.33-179.53 0-71.02 57.79-128.8 128.8-128.8 71.02 0 128.8 57.79 128.8 128.8 0 56.45-68.17 143.31-111.81 213.84-3.63 5.87-10.04 9.46-16.97 9.46zm0-155.83c-84.3 0-84.28-128.1 0-128.1s84.3 128.1 0 128.1z"/><path d="m1507.8 1980.8c-119.16-1.71-234.55-35.25-334.9-95.51 56.6-49.93 129.25-109.13 115.29-165.92-9.04-36.78 8.85-47.37 16.75-50.13h104.3c25.74 0 20-32.31 20-56.41 0-83.24 126.49-83.22 126.49 0v143.59c0 47.45 109.25-12.84 109.25 57.22 0 46.07-54.37 37.22-89.25 37.22-11.55 0-70.9 27.13-67.89 94.81.1 2.31-.09 18.49-.03 35.12zm-369.79-117.96c-24.57-16.9-48.09-35.5-70.35-55.7 71.21-14.91 133.5-54.03 177.87-108.37 1.31 29.1 19.73 50.07-43.07 106.11-9.55 8.52-41.58 38.45-64.44 57.96zm-64.8-665.65c21.24-9.15 49.41-5.87 78.39-5.87 78.39 0 142.17-63.78 142.17-142.17s-63.77-142.17-142.17-142.17h-165.98c44.67-58.41 98.69-109.33 159.72-150.51l195.24 154.43c22.6 17.4 56.39 43.44 94.24 43.44 66.46 0 119.67-82.89 79.44-152.54l-8.21-14.22 75.5-43.59c22.55-12.95 27.26-61.74 19.85-96.41 182.52 22.96 342.39 119.73 448.72 259.37h-362.7c-78.39 0-142.18 63.76-142.18 142.17 0 78.39 63.78 142.17 142.18 142.17h56.83c74.69 0 75.24 153.56 13 153.56h-47.87c-111.42 0-130.04 184.15 39.54 184.15h100.47c9.55 0 45.79-5.65 63.73 14.43 28.84 32.28-22.47 82.76 14.09 139.44 11.18 17.33 61.17 43.76 102.69 58.61-116.75 138.96-288.82 229.97-481.98 238.69.12-16.46-.05-32.37-.05-35.45 0-37.25 25.59-52.2 32.36-53.86h47.53c101.69 0 101.66-154.47 0-154.47h-32.02v-123.59c0-56.93-46.32-103.25-103.27-103.25-56.93 0-103.25 46.32-103.25 103.25v16.41c-27.9 0-84.67-3.85-102.79 4.52 84.52-180.25-16.93-389.96-213.24-436.56zm107.96-463.29c111.96-65.72 241.93-98.62 377.61-90.31 7.81 77.61 31.59 49.12-90.03 119.36-22.29 12.88-1.17 37.98 10.89 58.86 17.44 30.19 7.05 68.96-23.14 86.39-25.85 14.92-52.51 1.84-91.51-28.99zm-327.5 492.07c13.19-101.79 49.58-196.61 103.61-278.99h194.31c56.34 0 102.17 45.83 102.17 102.17s-45.83 102.17-102.17 102.17c-53.75 0-96.15-7.92-129.75 38.01-56.67-3.98-114.93 7.33-168.17 36.65zm1224.49-279.28c152.39 233.36 143.53 536.52-21.41 760.68-48.51-14.12-112.61-48.35-100.17-95.83 25.52-97.42-37.59-126.75-108.49-122.55h-99.18c-63.04 0-85.39-30.97-85.39-57.5 0-55.15 57.43-46.63 93.74-46.63 85.32 0 107.22-125.15 62.22-192.3-33.17-49.5-77.5-41.28-132.07-41.28-56.34 0-102.17-45.83-102.17-102.17s45.83-102.17 102.17-102.17l390.75-.26z"/><path d="m1003.19 1779.67c-247.24 0-371.8-300.7-196.97-475.52s475.54-50.27 475.54 196.97c0 153.93-124.65 278.56-278.57 278.56zm0-482.98c-181.44 0-272.87 220.66-144.56 348.97 128.31 128.3 348.98 36.92 348.98-144.55 0-112.99-91.44-204.42-204.43-204.42z"/><path d="m798.37 1808.76c-32.87 0-49.52-39.98-26.2-63.3l69.35-69.35c34.39-34.4 86.79 18.07 52.41 52.43-19.03 19.02-69.45 80.21-95.55 80.21zm-67.77-67.78c-32.87 0-49.51-39.98-26.2-63.29l69.35-69.35c34.41-34.41 86.8 18.07 52.41 52.43-19.03 19.01-69.48 80.2-95.56 80.2z"/><path d="m621.32 2024.33c-5.31 0-10.39-2.11-14.14-5.86l-121.31-121.32c-7.82-7.82-7.82-20.49 0-28.3l207.74-207.74c7.5-7.48 20.78-7.48 28.28 0l121.32 121.32c7.82 7.82 7.82 20.49 0 28.29l-207.74 207.74c-3.75 3.75-8.83 5.86-14.14 5.86z"/></g></g></svg>